<svg xmlns="http://www.w3.org/2000/svg" width="596.471" height="443.905"><g opacity=".05"><path data-name="Path 12" d="M415.759 199.258h-36.161v88.539h36.161z"/><path data-name="Rectangle 67" d="M379.598 301.777h36.161v88.539h-36.161z"/><path data-name="Rectangle 68" d="M503.831 217.898h13.514v116.498h-13.514z"/><path data-name="Rectangle 69" d="M97.113 311.097h40.635v41.939H97.113z"/><path data-name="Path 13" d="M216.873 117.71v86.4l52.284-55.919a9.32 9.32 0 0112.955 0l79.405 84.531V92.173L266.641 0l-80.803 78.473c2.33 4.101 32.899 34.204 31.035 39.237zm83.879-18.64a6.9 6.9 0 016.8-6.99h36.161a6.9 6.9 0 016.8 6.99v37.279a6.9 6.9 0 01-6.8 6.99h-36.158a6.9 6.9 0 01-6.8-6.99z"/><path data-name="Rectangle 70" d="M314.079 106.06h22.554v23.3h-22.554z"/><path data-name="Path 14" d="M542.229 425.265V167.478l-54.241-71.856-54.148 71.856v257.787h-18.08v-20.974H379.6v20.97h-18.083V259.744l-85.836-91.335-85.929 91.335v165.521h-18.08V255.923c-1.4-5.778 24.418-27.96 27.121-32.619V121.251l-72.229-82.76-72.322 82.76v304.014H0v18.64h596.471v-18.64zm-51.911-214.357a6.9 6.9 0 016.71-6.99h27.121a6.9 6.9 0 017.083 6.99v130.483a6.9 6.9 0 01-6.8 6.99h-27.4a6.9 6.9 0 01-6.71-6.99zm-406.439 93.2a6.9 6.9 0 016.8-6.99h54.242a6.9 6.9 0 016.71 6.99v55.919a6.9 6.9 0 01-6.71 6.99H90.4a6.9 6.9 0 01-6.524-6.99z"/></g></svg>